<svg width="65" height="65" viewBox="0 0 65 65" fill="none" xmlns="http://www.w3.org/2000/svg">
<g clip-path="url(#clip0_200_778)">
<path d="M65 32.2222C65 14.4264 50.4493 0 32.5 0C14.5507 0 0 14.4264 0 32.2222V32.7778C0 50.5736 14.5507 65 32.5 65C50.4493 65 65 50.5736 65 32.7778V32.2222Z" fill="#1C1A1A"/>
<path d="M56.0338 15.5547H8.96484V49.4436H56.0338V15.5547Z" fill="#1C1A1A"/>
<path d="M52.3905 40.5L51.1085 37.0261C51.0454 36.8721 50.9798 36.6891 50.9118 36.4772C50.8438 36.2654 50.7759 36.0367 50.7078 35.7911C50.6447 36.0367 50.5792 36.2678 50.5111 36.4844C50.4432 36.6963 50.3776 36.8817 50.3145 37.0406L49.0397 40.5H52.3905ZM55.8507 44.4433H54.3355C54.1655 44.4433 54.0271 44.4024 53.9203 44.3206C53.8135 44.2339 53.7334 44.1279 53.6799 44.0028L52.8932 41.8722H48.5298L47.743 44.0028C47.7042 44.1135 47.629 44.2146 47.5172 44.3061C47.4055 44.3976 47.2671 44.4433 47.102 44.4433H45.5723L49.7171 34H51.7131L55.8507 44.4433Z" fill="#FAFAFA"/>
<path d="M13.8632 22.7682V25.8593H17.8114V27.4121H13.8632V31.666H11.8964V21.2227H18.5398V22.7682H13.8632Z" fill="#FAFAFA"/>
<path d="M30.955 26.4446C30.955 27.2102 30.8263 27.9204 30.5689 28.5752C30.3163 29.2252 29.957 29.7885 29.4908 30.2652C29.0246 30.7419 28.4637 31.115 27.8081 31.3846C27.1525 31.6495 26.424 31.7819 25.6227 31.7819C24.8263 31.7819 24.1003 31.6495 23.4447 31.3846C22.7891 31.115 22.2257 30.7419 21.7547 30.2652C21.2885 29.7885 20.9266 29.2252 20.6693 28.5752C20.4119 27.9204 20.2832 27.2102 20.2832 26.4446C20.2832 25.6791 20.4119 24.9713 20.6693 24.3213C20.9266 23.6665 21.2885 23.1008 21.7547 22.6241C22.2257 22.1474 22.7891 21.7767 23.4447 21.5119C24.1003 21.2423 24.8263 21.1074 25.6227 21.1074C26.1569 21.1074 26.6595 21.17 27.1306 21.2952C27.6016 21.4156 28.0339 21.5889 28.4273 21.8152C28.8206 22.0367 29.1727 22.3087 29.4835 22.6313C29.7991 22.9491 30.0663 23.3054 30.2848 23.7002C30.5033 24.095 30.6684 24.5235 30.7801 24.9858C30.8967 25.448 30.955 25.9343 30.955 26.4446ZM28.9517 26.4446C28.9517 25.8717 28.874 25.3589 28.7186 24.9063C28.5632 24.4489 28.3422 24.0613 28.0557 23.7435C27.7692 23.4258 27.4195 23.1826 27.0068 23.0141C26.5989 22.8456 26.1375 22.7613 25.6227 22.7613C25.1079 22.7613 24.6441 22.8456 24.2314 23.0141C23.8235 23.1826 23.4738 23.4258 23.1824 23.7435C22.8959 24.0613 22.6749 24.4489 22.5195 24.9063C22.3641 25.3589 22.2864 25.8717 22.2864 26.4446C22.2864 27.0176 22.3641 27.5328 22.5195 27.9902C22.6749 28.4428 22.8959 28.828 23.1824 29.1458C23.4738 29.4587 23.8235 29.6995 24.2314 29.868C24.6441 30.0365 25.1079 30.1208 25.6227 30.1208C26.1375 30.1208 26.5989 30.0365 27.0068 29.868C27.4195 29.6995 27.7692 29.4587 28.0557 29.1458C28.3422 28.828 28.5632 28.4428 28.7186 27.9902C28.874 27.5328 28.9517 27.0176 28.9517 26.4446ZM43.5952 26.4446C43.5952 27.2102 43.4665 27.9204 43.2092 28.5752C42.9566 29.2252 42.5973 29.7885 42.1311 30.2652C41.6648 30.7419 41.1039 31.115 40.4483 31.3846C39.7927 31.6495 39.0643 31.7819 38.263 31.7819C37.4666 31.7819 36.7405 31.6495 36.0849 31.3846C35.4293 31.115 34.866 30.7419 34.3949 30.2652C33.9287 29.7885 33.5669 29.2252 33.3095 28.5752C33.0522 27.9204 32.9235 27.2102 32.9235 26.4446C32.9235 25.6791 33.0522 24.9713 33.3095 24.3213C33.5669 23.6665 33.9287 23.1008 34.3949 22.6241C34.866 22.1474 35.4293 21.7767 36.0849 21.5119C36.7405 21.2423 37.4666 21.1074 38.263 21.1074C38.7972 21.1074 39.2998 21.17 39.7709 21.2952C40.242 21.4156 40.6742 21.5889 41.0675 21.8152C41.4609 22.0367 41.8129 22.3087 42.1238 22.6313C42.4394 22.9491 42.7065 23.3054 42.9251 23.7002C43.1436 24.095 43.3087 24.5235 43.4204 24.9858C43.537 25.448 43.5952 25.9343 43.5952 26.4446ZM41.592 26.4446C41.592 25.8717 41.5143 25.3589 41.3589 24.9063C41.2035 24.4489 40.9825 24.0613 40.696 23.7435C40.4095 23.4258 40.0598 23.1826 39.647 23.0141C39.2391 22.8456 38.7778 22.7613 38.263 22.7613C37.7482 22.7613 37.2845 22.8456 36.8717 23.0141C36.4637 23.1826 36.1141 23.4258 35.8227 23.7435C35.5362 24.0613 35.3152 24.4489 35.1598 24.9063C35.0044 25.3589 34.9267 25.8717 34.9267 26.4446C34.9267 27.0176 35.0044 27.5328 35.1598 27.9902C35.3152 28.4428 35.5362 28.828 35.8227 29.1458C36.1141 29.4587 36.4637 29.6995 36.8717 29.868C37.2845 30.0365 37.7482 30.1208 38.263 30.1208C38.7778 30.1208 39.2391 30.0365 39.647 29.868C40.0598 29.6995 40.4095 29.4587 40.696 29.1458C40.9825 28.828 41.2035 28.4428 41.3589 27.9902C41.5143 27.5328 41.592 27.0176 41.592 26.4446Z" fill="#F4D300"/>
<path d="M55.4158 26.4443C55.4158 27.2099 55.2871 27.9128 55.0297 28.5532C54.7723 29.1936 54.4105 29.7449 53.9443 30.2071C53.4781 30.6693 52.9172 31.028 52.2616 31.2832C51.606 31.5384 50.8775 31.666 50.0762 31.666H46.0625V21.2227H50.0762C50.8775 21.2227 51.606 21.3527 52.2616 21.6127C52.9172 21.8678 53.4781 22.2265 53.9443 22.6888C54.4105 23.1462 54.7723 23.695 55.0297 24.3354C55.2871 24.9758 55.4158 25.6788 55.4158 26.4443ZM53.4053 26.4443C53.4053 25.8714 53.3275 25.3586 53.1722 24.906C53.0216 24.4486 52.8006 24.0634 52.5093 23.7504C52.2227 23.4327 51.873 23.1895 51.4603 23.021C51.0524 22.8525 50.591 22.7682 50.0762 22.7682H48.0293V30.1204H50.0762C50.591 30.1204 51.0524 30.0362 51.4603 29.8677C51.873 29.6992 52.2227 29.4584 52.5093 29.1454C52.8006 28.8277 53.0216 28.4425 53.1722 27.9899C53.3275 27.5325 53.4053 27.0173 53.4053 26.4443Z" fill="#FAFAFA"/>
<path d="M15.9686 40.5L14.6865 37.0261C14.6234 36.8721 14.5579 36.6891 14.4899 36.4772C14.4219 36.2654 14.3539 36.0367 14.286 35.7911C14.2228 36.0367 14.1572 36.2678 14.0893 36.4844C14.0212 36.6963 13.9557 36.8817 13.8926 37.0406L12.6178 40.5H15.9686ZM19.4287 44.4433H17.9136C17.7436 44.4433 17.6052 44.4024 17.4984 44.3206C17.3916 44.2339 17.3114 44.1279 17.258 44.0028L16.4712 41.8722H12.1079L11.3212 44.0028C11.2823 44.1135 11.207 44.2146 11.0953 44.3061C10.9836 44.3976 10.8452 44.4433 10.6801 44.4433H9.15039L13.2953 34H15.2912L19.4287 44.4433Z" fill="#FAFAFA"/>
<path d="M22.6341 34.8705H28.6803C29.3504 34.8705 29.8846 34.7405 30.2828 34.4805C30.7879 35.8575 31.0404 37.2008 31.0404 38.5105C31.0404 40.1764 30.5548 41.5245 29.5835 42.5549C28.6123 43.5949 27.2574 44.1149 25.5188 44.1149C23.79 44.1149 22.4399 43.5949 21.4686 42.5549C20.4974 41.5245 20.0117 40.1764 20.0117 38.5105C20.0117 37.2586 20.2157 36.339 20.6236 35.7516C21.0412 35.1641 21.7114 34.8705 22.6341 34.8705ZM22.4739 37.1527C21.8717 37.1527 21.5706 37.6294 21.5706 38.5827C21.5706 39.5456 21.9299 40.316 22.6487 40.8938C23.3675 41.4812 24.3241 41.7749 25.5188 41.7749C26.7134 41.7749 27.675 41.4812 28.4034 40.8938C29.1319 40.316 29.4961 39.5216 29.4961 38.5105C29.4961 38.0675 29.4087 37.6149 29.2339 37.1527H22.4739Z" fill="#F4D300"/>
<path d="M35.5228 34.8705H41.5689C42.2391 34.8705 42.7733 34.7405 43.1715 34.4805C43.6765 35.8575 43.9291 37.2008 43.9291 38.5105C43.9291 40.1764 43.4434 41.5245 42.4722 42.5549C41.501 43.5949 40.146 44.1149 38.4075 44.1149C36.6786 44.1149 35.3285 43.5949 34.3573 42.5549C33.386 41.5245 32.9004 40.1764 32.9004 38.5105C32.9004 37.2586 33.1044 36.339 33.5123 35.7516C33.9299 35.1641 34.6001 34.8705 35.5228 34.8705ZM35.3625 37.1527C34.7603 37.1527 34.4593 37.6294 34.4593 38.5827C34.4593 39.5456 34.8186 40.316 35.5374 40.8938C36.2561 41.4812 37.2128 41.7749 38.4075 41.7749C39.6021 41.7749 40.5637 41.4812 41.2921 40.8938C42.0206 40.316 42.3848 39.5216 42.3848 38.5105C42.3848 38.0675 42.2974 37.6149 42.1225 37.1527H35.3625Z" fill="#F4D300"/>
</g>
<defs>
<clipPath id="clip0_200_778">
<rect width="65" height="65" fill="white"/>
</clipPath>
</defs>
</svg>
