<?xml version="1.0" encoding="UTF-8"?>
<svg width="18px" height="18px" viewBox="0 0 18 18" version="1.1" xmlns="http://www.w3.org/2000/svg">
    <g stroke="none" stroke-width="1" fill="none" fill-rule="evenodd">
        <path d="M17,9.05 C17,4.04 13.18,0 8.5,0 C3.82,0 0,4.04 0,9.05 C0,13.55 3.18,17.3 7.5,18 L7.5,11.8 L5.5,11.8 L5.5,9.05 L7.5,9.05 L7.5,7.05 C7.5,4.8 8.82,3.55 10.82,3.55 C11.82,3.55 12.82,3.75 12.82,3.75 L12.82,6.05 L11.82,6.05 C10.82,6.05 10.5,6.55 10.5,7.3 L10.5,9.05 L12.82,9.05 L12.5,11.8 L10.5,11.8 L10.5,18 C14.82,17.3 17,13.55 17,9.05 Z" fill="#1877F2"></path>
    </g>
</svg> 